HIERARCHY
ROOT Hips
{
	OFFSET 0.00000 0.00000 0.00000
	CHANNELS 6 Xposition Yposition Zposition Zrotation Yrotation Xrotation 
	JOINT LHipJoint
	{
		OFFSET 0 0 0
		CHANNELS 3 Zrotation Yrotation Xrotation
		JOINT LeftUpLeg
		{
			OFFSET 1.56741 -1.82513 0.67319
			CHANNELS 3 Zrotation Yrotation Xrotation
			JOINT LeftLeg
			{
				OFFSET 2.35708 -6.47604 0.00000
				CHANNELS 3 Zrotation Yrotation Xrotation
				JOINT LeftFoot
				{
					OFFSET 2.70636 -7.43567 0.00000
					CHANNELS 3 Zrotation Yrotation Xrotation
					JOINT LeftToeBase
					{
						OFFSET 0.20427 -0.56122 2.08535
						CHANNELS 3 Zrotation Yrotation Xrotation
						End Site
						{
							OFFSET 0.00000 -0.00000 1.08535
						}
					}
				}
			}
		}
	}
	JOINT RHipJoint
	{
		OFFSET 0 0 0
		CHANNELS 3 Zrotation Yrotation Xrotation
		JOINT RightUpLeg
		{
			OFFSET -1.51422 -1.82513 0.67319
			CHANNELS 3 Zrotation Yrotation Xrotation
			JOINT RightLeg
			{
				OFFSET -2.48824 -6.83638 0.00000
				CHANNELS 3 Zrotation Yrotation Xrotation
				JOINT RightFoot
				{
					OFFSET -2.70033 -7.41909 0.00000
					CHANNELS 3 Zrotation Yrotation Xrotation
					JOINT RightToeBase
					{
						OFFSET -0.19750 -0.54263 2.22151
						CHANNELS 3 Zrotation Yrotation Xrotation
						End Site
						{
							OFFSET -0.00000 -0.00000 1.14915
						}
					}
				}
			}
		}
	}
	JOINT LowerBack
	{
		OFFSET 0 0 0
		CHANNELS 3 Zrotation Yrotation Xrotation
		JOINT Spine
		{
			OFFSET -0.01567 2.12874 -0.15842
			CHANNELS 3 Zrotation Yrotation Xrotation
			JOINT Spine1
			{
				OFFSET 0.06098 2.13326 -0.01043
				CHANNELS 3 Zrotation Yrotation Xrotation
				JOINT Neck
				{
					OFFSET 0 0 0
					CHANNELS 3 Zrotation Yrotation Xrotation
					JOINT Neck1
					{
						OFFSET -0.05040 1.78432 0.13387
						CHANNELS 3 Zrotation Yrotation Xrotation
						JOINT Head
						{
							OFFSET -0.00180 1.76880 -0.33303
							CHANNELS 3 Zrotation Yrotation Xrotation
							End Site
							{
								OFFSET 0.00734 1.81249 -0.12719
							}
						}
					}
				}
				JOINT LeftShoulder
				{
					OFFSET 0 0 0
					CHANNELS 3 Zrotation Yrotation Xrotation
					JOINT LeftArm
					{
						OFFSET 3.72199 0.94188 -0.54317
						CHANNELS 3 Zrotation Yrotation Xrotation
						JOINT LeftForeArm
						{
							OFFSET 5.14601 -0.00000 0.00000
							CHANNELS 3 Zrotation Yrotation Xrotation
							JOINT LeftHand
							{
								OFFSET 3.64452 -0.00000 -0.00000
								CHANNELS 3 Zrotation Yrotation Xrotation
								JOINT LeftFingerBase
								{
									OFFSET 0 0 0
									CHANNELS 3 Zrotation Yrotation Xrotation
									JOINT LeftHandIndex1
									{
										OFFSET 0.56228 -0.00000 0.00000
										CHANNELS 3 Zrotation Yrotation Xrotation
										End Site
										{
											OFFSET 0.45332 -0.00000 0.00000
										}
									}
								}
								JOINT LThumb
								{
									OFFSET 0 0 0
									CHANNELS 3 Zrotation Yrotation Xrotation
									End Site
									{
										OFFSET 0.46025 -0.00000 0.46025
									}
								}
							}
						}
					}
				}
				JOINT RightShoulder
				{
					OFFSET 0 0 0
					CHANNELS 3 Zrotation Yrotation Xrotation
					JOINT RightArm
					{
						OFFSET -3.30253 1.22679 -0.46941
						CHANNELS 3 Zrotation Yrotation Xrotation
						JOINT RightForeArm
						{
							OFFSET -5.33913 -0.00000 0.00000
							CHANNELS 3 Zrotation Yrotation Xrotation
							JOINT RightHand
							{
								OFFSET -3.56478 -0.00000 -0.00000
								CHANNELS 3 Zrotation Yrotation Xrotation
								JOINT RightFingerBase
								{
									OFFSET 0 0 0
									CHANNELS 3 Zrotation Yrotation Xrotation
									JOINT RightHandIndex1
									{
										OFFSET -0.85747 -0.00000 0.00000
										CHANNELS 3 Zrotation Yrotation Xrotation
										End Site
										{
											OFFSET -0.69132 -0.00000 0.00000
										}
									}
								}
								JOINT RThumb
								{
									OFFSET 0 0 0
									CHANNELS 3 Zrotation Yrotation Xrotation
									End Site
									{
										OFFSET -0.70187 -0.00000 0.70187
									}
								}
							}
						}
					}
				}
			}
		}
	}
}
MOTION
Frames: 6
Frame Time: 0.00854701
0.00 0.00 0.00 -708.9880 -64.3787 1072.1600 0.0000 0.0000 0.0000 -19.3912 -0.4109 -15.5591 1.2722 7.1486 20.1564 -0.2373 8.8176 -5.3132 1.5081 -7.7561 -21.9756 0.0000 0.0000 0.0000 10.4561 -1.4993 0.2059 -5.0208 -13.4071 40.9123 1.5938 -23.6883 -19.4651 -1.8453 -8.5361 24.3547 -1.5561 1.1626 8.6309 0.3496 1.3870 1.5802 1.0804 0.6934 -3.2457 -6.5855 4.2162 -10.2494 -3.0850 7.7056 25.8486 0.8684 2.4211 9.7957 0.0000 -0.0000 0.0000 -19.2038 -17.5295 -35.7193 131.8332 -52.2289 -95.2825 -0.0000 0.0000 -24.6701 14.8936 17.0561 4.4605 -7.1250 0.0000 -0.0000 -12.4063 47.2035 -0.6847 0.0000 -0.0000 0.0000 11.5229 2.5426 -48.9571 -143.4811 45.8668 -104.1062 0.0000 -0.0000 -11.7675 -29.8279 15.1028 -8.4964 7.1250 -0.0000 -0.0000 -1.4941 -12.7041 -1.1293
0.00 0.00 0.00 -711.9740 -56.8207 1074.8700 0.0000 0.0000 0.0000 -22.4582 -0.5161 -12.0796 1.2463 7.0784 19.9480 0.0756 3.2985 -7.4579 1.8040 -8.4454 -24.0752 0.0000 0.0000 0.0000 10.7681 1.3726 -11.4660 -9.2556 -16.9694 56.9699 -0.2322 -3.9074 -11.3987 -0.0536 -1.4943 4.1100 -2.5402 0.4952 8.5385 -0.1958 0.3945 2.8365 1.1868 0.1731 -1.8655 -3.9490 2.8878 -13.8662 -2.8912 5.6795 28.7392 0.3648 1.6071 11.6805 0.0000 -0.0000 0.0000 -20.0318 -19.1200 -37.5037 138.8384 -48.7433 -100.6920 -0.0000 0.0000 -26.0730 17.7989 11.0363 3.5168 -7.1250 0.0000 -0.0000 -8.2864 41.4132 0.7388 0.0000 -0.0000 0.0000 15.9101 4.8127 -45.4103 -146.5459 43.6762 -106.2653 0.0000 -0.0000 -9.3399 -27.2413 18.6049 -9.3278 7.1250 -0.0000 -0.0000 0.5916 -9.2427 0.4889
0.00 0.00 0.00 -715.6870 -35.7123 1083.2200 0.0000 0.0000 0.0000 -19.6456 -7.0876 -5.4104 1.1984 6.9459 19.5550 0.6116 -8.4818 -14.2718 2.0485 -8.9665 -25.6905 0.0000 0.0000 0.0000 0.5165 16.1560 -34.1264 -2.6397 -10.0876 29.2608 0.1504 -11.5222 -14.0562 -0.0408 -1.3037 3.5850 -4.3419 -0.4132 13.2833 0.8725 -1.1365 4.1985 3.5431 -0.5994 -2.9195 -5.6215 2.6768 -10.0742 -3.7032 5.7267 28.0385 0.2936 1.4827 10.6535 0.0000 0.0000 0.0000 -74.9420 -1.3126 -20.0960 123.1230 -55.4186 -88.2441 -0.0000 0.0000 -18.5127 28.4035 10.9199 5.8491 -7.1250 0.0000 -0.0000 1.1817 42.3476 -0.0773 0.0000 0.0000 0.0000 64.0430 1.3486 -21.5510 -155.0031 36.2008 -111.7119 0.0000 -0.0000 -5.3948 -33.9216 14.7045 -9.6875 7.1250 -0.0000 -0.0000 -4.2650 -12.4665 -3.2530
0.00 0.00 0.00 -716.2640 -31.3165 1084.8600 0.0000 0.0000 0.0000 -17.2409 -8.5601 -4.7714 1.1566 6.8278 19.2063 0.5821 -10.6015 -14.4889 2.0037 -8.8737 -25.4012 0.0000 0.0000 0.0000 -1.8746 19.5421 -33.5257 -1.7605 -8.3483 23.7771 0.3336 -14.7208 -16.7425 -0.0442 -1.3571 3.7320 -3.4513 -0.4996 13.8236 1.4377 -1.1255 4.4701 3.6393 -0.5984 -2.9355 -6.2748 1.8127 -9.6481 -3.7486 4.6203 27.6168 0.2556 0.9482 10.4157 0.0000 -0.0000 0.0000 -80.8883 0.1363 -18.6635 105.9588 -59.0155 -73.7750 -0.0000 0.0000 -18.4899 25.4253 10.2195 4.8210 -7.1250 0.0000 -0.0000 -1.4273 41.2642 0.1316 0.0000 -0.0000 0.0000 67.3096 1.0882 -17.4809 -156.3854 34.7541 -112.5143 0.0000 -0.0000 -4.5852 -30.9937 16.7218 -9.8061 7.1250 -0.0000 -0.0000 -2.0733 -10.6758 -1.6544
0.00 0.00 0.00 -714.9520 -28.8874 1084.8100 0.0000 0.0000 0.0000 -17.2143 -8.9217 -3.6668 1.0142 6.4072 17.9707 0.5347 -11.9145 -14.4534 2.1527 -9.1772 -26.3512 0.0000 0.0000 0.0000 -2.8110 18.2983 -34.1162 -1.7731 -8.3765 23.8635 0.2572 -13.9712 -16.5382 -0.0578 -1.5512 4.2670 -3.6215 -0.3425 14.1298 1.2327 -0.9535 4.1631 3.5034 -0.4917 -3.4393 -6.9577 1.0726 -7.8343 -3.3908 3.4134 27.1027 0.3471 0.4245 9.8734 0.0000 0.0000 0.0000 -81.9143 0.2767 -18.0301 86.9595 -59.9650 -57.3672 -0.0000 0.0000 -17.4463 24.8459 9.3383 4.2968 -7.1250 0.0000 -0.0000 -1.8522 40.2447 0.2172 0.0000 0.0000 0.0000 67.5710 0.6409 -15.1994 -156.1797 34.9737 -112.3967 0.0000 -0.0000 -4.4059 -30.8335 17.5024 -10.1773 7.1250 -0.0000 -0.0000 -1.8695 -9.8225 -1.5240
0.00 0.00 0.00 -713.6680 -26.4027 1085.0100 0.0000 0.0000 0.0000 -16.9120 -9.3434 -3.3987 0.9522 6.2142 17.4072 0.3832 -13.3288 -13.5590 1.6751 -8.1538 -23.1823 0.0000 0.0000 0.0000 -2.5895 16.2660 -34.8605 -1.9744 -8.8125 25.2106 0.2481 -13.2744 -15.4534 -0.0146 -0.7800 2.1438 -4.1510 -0.3461 14.3755 1.0582 -1.0445 4.2305 3.6395 -0.5337 -3.4851 -6.9864 0.4543 -8.2342 -3.2793 2.5862 27.0353 0.3087 0.0619 9.9383 0.0000 -0.0000 0.0000 -81.1594 -1.8494 -18.3615 63.2552 -57.1167 -37.0625 -0.0000 0.0000 -20.3583 20.5655 9.3393 3.4842 -7.1250 0.0000 -0.0000 -5.5906 39.8825 0.7078 0.0000 -0.0000 0.0000 67.2727 2.4283 -13.5861 -153.3621 37.8317 -110.7238 0.0000 -0.0000 -2.7374 -29.6796 18.0434 -10.0110 7.1250 -0.0000 -0.0000 -1.0530 -9.4292 -0.8664
